<svg xmlns="http://www.w3.org/2000/svg" xmlns:xlink="http://www.w3.org/1999/xlink" width="269.608" height="41.333" viewBox="0 0 269.608 41.333">
  <defs>
    <clipPath id="clip-path">
      <rect id="Rectangle_1257" data-name="Rectangle 1257" width="269.608" height="41.333" fill="#fff"/>
    </clipPath>
  </defs>
  <g id="Group_462" data-name="Group 462" transform="translate(0 0)">
    <g id="Group_461" data-name="Group 461" transform="translate(0 0)" clip-path="url(#clip-path)">
      <path id="Path_1351" data-name="Path 1351" d="M151.095,44.513h-3.713a4.605,4.605,0,0,1-.507-2.27l-.08-2.084c-.107-2.431-1.122-3.1-3.045-3.1h-4.7v7.452h-3.606V25.494h8.628c4.38,0,6.7,2.164,6.7,5.369A4.526,4.526,0,0,1,147.6,35.4c2.11.668,2.671,2.084,2.751,4.06l.16,2.832a4.4,4.4,0,0,0,.588,2.217m-7.239-10.284c1.95,0,3.206-1.015,3.206-2.965,0-1.87-1.256-2.8-3.339-2.8h-4.674v5.77Z" transform="translate(-76.168 -14.337)" fill="#fff"/>
      <path id="Path_1352" data-name="Path 1352" d="M189.06,40.32h-8.334l-1.47,4.194h-3.713l7.239-19.019H187l7.372,19.019h-3.82Zm-1.1-3.072-.748-2.057c-.668-1.736-1.576-4.274-2.351-6.518-.775,2.244-1.683,4.782-2.324,6.518l-.721,2.057Z" transform="translate(-98.721 -14.338)" fill="#fff"/>
      <path id="Path_1353" data-name="Path 1353" d="M220.529,38.957V37.728h3.446v1.229a2.819,2.819,0,1,0,5.636,0V25.494h3.58V38.957c0,3.472-2.244,5.983-6.384,5.983-3.954,0-6.277-2.324-6.277-5.983" transform="translate(-124.019 -14.337)" fill="#fff"/>
      <path id="Path_1354" data-name="Path 1354" d="M286.842,40.32h-8.334l-1.47,4.194h-3.713l7.239-19.019h4.22l7.372,19.019h-3.82Zm-1.1-3.072L285,35.191c-.668-1.736-1.576-4.274-2.35-6.518-.775,2.244-1.683,4.782-2.324,6.518l-.721,2.057Z" transform="translate(-153.71 -14.338)" fill="#fff"/>
      <path id="Path_1355" data-name="Path 1355" d="M316.823,34.455c0-6.144,3.712-9.937,9.215-9.937,4.22,0,7.8,2.27,8.628,6.972h-3.659a4.769,4.769,0,0,0-4.968-3.82c-3.392,0-5.449,2.538-5.449,6.785,0,4.273,2.057,6.785,5.449,6.785a4.926,4.926,0,0,0,5.1-4.434h3.606c-.534,5.022-4.354,7.586-8.708,7.586-5.422,0-9.215-3.793-9.215-9.936" transform="translate(-178.172 -13.788)" fill="#fff"/>
      <path id="Path_1356" data-name="Path 1356" d="M372.492,40.32h-8.334l-1.47,4.194h-3.713l7.239-19.019h4.221l7.372,19.019h-3.82Zm-1.1-3.072-.748-2.057c-.668-1.736-1.576-4.274-2.35-6.518-.775,2.244-1.683,4.782-2.324,6.518l-.721,2.057Z" transform="translate(-201.877 -14.338)" fill="#fff"/>
      <path id="Path_1357" data-name="Path 1357" d="M424.647,35c0,5.8-3.339,9.509-9.536,9.509h-7.266V25.495h7.266c6.2,0,9.536,3.713,9.536,9.509m-3.74,0c0-4.221-2.164-6.411-5.85-6.411h-3.606V41.415h3.606c3.686,0,5.85-2.19,5.85-6.41" transform="translate(-229.36 -14.338)" fill="#fff"/>
      <path id="Path_1358" data-name="Path 1358" d="M456.376,28.727v4.488h9.429v3.1h-9.429v4.968H466.74v3.232H452.77V25.495h14.023v3.232Z" transform="translate(-254.624 -14.337)" fill="#fff"/>
      <path id="Path_1359" data-name="Path 1359" d="M513.79,25.494V44.513h-3.446v-5.8c0-2.885.027-5.983.107-9.429-.427,1.442-.855,2.725-1.442,4.381l-3.846,10.844H502.2l-3.873-10.844c-.561-1.63-.988-2.912-1.416-4.327.08,3.419.107,6.517.107,9.375v5.8h-3.472V25.494h5.235l3.285,9.242c.561,1.709,1.148,3.579,1.629,5.155.481-1.656,1.1-3.632,1.683-5.342l3.179-9.055Z" transform="translate(-277.553 -14.337)" fill="#fff"/>
      <path id="Path_1360" data-name="Path 1360" d="M562.983,25.494l-7.132,11.513v7.506h-3.606V37.007L545.06,25.494h4.087l2.11,3.446c.962,1.6,1.95,3.205,2.858,4.808.908-1.629,1.87-3.259,2.8-4.835L559,25.494Z" transform="translate(-306.525 -14.337)" fill="#fff"/>
      <path id="Path_1361" data-name="Path 1361" d="M4.465,25.131A4.465,4.465,0,1,0,0,20.666a4.465,4.465,0,0,0,4.465,4.465m0-6.586a2.121,2.121,0,1,1-2.122,2.121,2.124,2.124,0,0,1,2.122-2.121M8.172,6.514a4.466,4.466,0,1,0,2.233-3.871A4.445,4.445,0,0,0,8.172,6.514m6.3-1.065a2.087,2.087,0,0,1,.285,1.056A2.132,2.132,0,0,1,13.7,8.347a2.122,2.122,0,0,1-3.182-1.833,2.122,2.122,0,0,1,3.959-1.064M34.837,5.2A6.006,6.006,0,1,1,27.2.787,20.746,20.746,0,0,0,23.76,0a8.314,8.314,0,0,0-2.947,4.8A8.345,8.345,0,0,0,17.863,0a20.757,20.757,0,0,0-3.431.786,6,6,0,0,1,1.21,10.925,5.993,5.993,0,0,1-8.863-6.5,21.005,21.005,0,0,0-2.393,2.58,8.341,8.341,0,0,0,2.7,4.95,8.321,8.321,0,0,0-5.646.147A20.68,20.68,0,0,0,.406,16.253a6.006,6.006,0,1,1,0,8.827,20.675,20.675,0,0,0,1.032,3.366,8.321,8.321,0,0,0,5.646.147,8.345,8.345,0,0,0-2.7,4.95,20.942,20.942,0,0,0,2.393,2.58,6.008,6.008,0,1,1,7.654,4.424,20.743,20.743,0,0,0,3.431.786,8.347,8.347,0,0,0,2.951-4.8,8.32,8.32,0,0,0,2.946,4.8,20.78,20.78,0,0,0,3.436-.787,6.006,6.006,0,1,1,7.641-4.415,21,21,0,0,0,2.4-2.581,8.3,8.3,0,0,0-2.69-4.956,8.322,8.322,0,0,0,5.642-.149,20.724,20.724,0,0,0,1.032-3.366,6.006,6.006,0,1,1,0-8.826,20.718,20.718,0,0,0-1.032-3.366,8.319,8.319,0,0,0-5.642-.149,8.3,8.3,0,0,0,2.69-4.956,20.967,20.967,0,0,0-2.4-2.581M20.813,33.133c-.033-.158-.068-.315-.11-.471a8.281,8.281,0,0,0-2.921-4.405l3.029-5.246,3.025,5.24a8.343,8.343,0,0,0-3.024,4.883m8.079-11.295A8.342,8.342,0,0,0,31.616,26.9a8.341,8.341,0,0,0-5.75.174l-3.025-5.24Zm-10.11,0-3.025,5.239a8.285,8.285,0,0,0-5.28-.319c-.163.044-.319.1-.478.153a8.339,8.339,0,0,0,2.731-5.073Zm-6.051-2.344A8.34,8.34,0,0,0,10,14.422c.158.053.315.11.478.153a8.285,8.285,0,0,0,5.28-.319l3.025,5.239Zm18.886-5.066a8.343,8.343,0,0,0-2.724,5.066H22.841l3.025-5.24a8.341,8.341,0,0,0,5.75.174m-7.779-1.346-3.025,5.24-3.029-5.246A8.279,8.279,0,0,0,20.7,8.671c.042-.157.077-.314.11-.472a8.339,8.339,0,0,0,3.023,4.884m1.281-8.8a4.466,4.466,0,1,0,6.1-1.635,4.444,4.444,0,0,0-6.1,1.635m4.928.4a2.131,2.131,0,0,1,1.061,1.842,2.088,2.088,0,0,1-.285,1.056,2.122,2.122,0,0,1-3.959-1.065,2.124,2.124,0,0,1,1.573-2.045,2.109,2.109,0,0,1,1.61.212M37.158,16.2a4.465,4.465,0,1,0,4.465,4.465A4.465,4.465,0,0,0,37.158,16.2m0,6.586a2.121,2.121,0,1,1,2.121-2.121,2.123,2.123,0,0,1-2.121,2.121M33.451,34.819a4.466,4.466,0,1,0-2.234,3.871,4.442,4.442,0,0,0,2.234-3.871m-5.015,2.053a2.123,2.123,0,0,1-1.573-2.045,2.122,2.122,0,0,1,3.959-1.065,2.09,2.09,0,0,1,.285,1.057,2.131,2.131,0,0,1-1.061,1.841,2.109,2.109,0,0,1-1.61.212m-11.93.184a4.466,4.466,0,1,0-6.1,1.634,4.443,4.443,0,0,0,6.1-1.634m-4.928-.4a2.131,2.131,0,0,1-1.061-1.842A2.122,2.122,0,0,1,13.7,32.986a2.132,2.132,0,0,1,1.062,1.842,2.124,2.124,0,0,1-1.573,2.045,2.108,2.108,0,0,1-1.61-.212" transform="translate(0 0)" fill="#fff"/>
      <path id="Path_1362" data-name="Path 1362" d="M603.057,29.5a5.063,5.063,0,1,1-5.046-4.925,4.95,4.95,0,0,1,5.046,4.925m-8.86,0a3.816,3.816,0,0,0,3.845,3.934,3.771,3.771,0,0,0,3.754-3.9,3.8,3.8,0,1,0-7.6-.03m3.034,2.583H596.09V27.159a9.958,9.958,0,0,1,1.892-.15,3.068,3.068,0,0,1,1.712.361,1.366,1.366,0,0,1,.48,1.081,1.263,1.263,0,0,1-1.021,1.142v.059a1.455,1.455,0,0,1,.9,1.2,3.753,3.753,0,0,0,.361,1.231h-1.232a4.246,4.246,0,0,1-.39-1.2c-.09-.541-.391-.781-1.021-.781h-.541Zm.03-2.793h.54c.631,0,1.142-.21,1.142-.721,0-.45-.331-.751-1.052-.751a2.734,2.734,0,0,0-.631.06Z" transform="translate(-333.449 -13.821)" fill="#fff"/>
    </g>
  </g>
</svg>
